<?xml version="1.0" encoding="UTF-8" standalone="no"?>
<!DOCTYPE svg PUBLIC "-//W3C//DTD SVG 1.1//EN" "http://www.w3.org/Graphics/SVG/1.1/DTD/svg11.dtd">
<svg width="320" height="320" viewBox="0 0 320 320" version="1.1" xmlns="http://www.w3.org/2000/svg" xmlns:xlink="http://www.w3.org/1999/xlink" xml:space="preserve" xmlns:serif="http://www.serif.com/" style="fill-rule:evenodd;clip-rule:evenodd;stroke-linejoin:round;stroke-miterlimit:2;">
    <g id="numbered">
        <g transform="matrix(0.533333,0,0,0.533333,0,0)">
            <circle cx="300" cy="300" r="300" style="fill:rgb(204,204,204);"/>
        </g>
        <path d="M111.125,82.125L111.125,237.875L81.875,237.875L81.875,96.625L58.625,99.625L58.625,88.875L111.125,82.125ZM224.375,139.875C228.625,133.875 230.625,127.375 230.625,121.125C230.625,104.375 216.875,89.375 194.125,89.375C176.375,89.375 158.375,93.625 149.375,102.875L138.125,94.875C149.625,84.125 171.625,78.875 193.875,78.875C237.625,78.875 261.375,100.625 261.375,125.625C261.375,138.125 255.375,151.375 242.625,162.875C212.625,190.125 165.875,183.375 165.875,222.625L165.875,226.875L258.375,226.875L258.375,237.875L135.625,237.875C135.625,232.125 135.375,226.375 135.375,220.625C135.375,158.625 203.625,169.375 224.375,139.875Z"/>
    </g>
</svg>
