<?xml version="1.0" encoding="UTF-8" standalone="no"?>
<!DOCTYPE svg PUBLIC "-//W3C//DTD SVG 1.1//EN" "http://www.w3.org/Graphics/SVG/1.1/DTD/svg11.dtd">
<svg width="320" height="320" viewBox="0 0 320 320" version="1.1" xmlns="http://www.w3.org/2000/svg" xmlns:xlink="http://www.w3.org/1999/xlink" xml:space="preserve" xmlns:serif="http://www.serif.com/" style="fill-rule:evenodd;clip-rule:evenodd;stroke-linejoin:round;stroke-miterlimit:2;">
    <g id="black">
        <g transform="matrix(0.533333,0,0,0.533333,0,0)">
            <circle cx="300" cy="300" r="300" style="fill:rgb(165,165,165);"/>
        </g>
        <g transform="matrix(0.910651,0,0,0.910651,14.2958,15.2509)">
            <path d="M160,14C248.475,19.205 291.833,84.5 279,160C275.477,180.724 257.631,197.432 263,221C267.045,238.757 254.851,242.838 248,241C207.617,230.168 216.52,271.42 211,286C209.333,290.404 201.181,291.359 196.881,286.478C193.985,283.191 198.046,268.153 194.2,268.714C187.024,269.762 193.556,298.116 184.876,298.852C169.865,300.126 176.984,278.891 171.056,278.279C165.223,277.676 171.325,305.131 160,305C148.675,305.131 154.777,277.676 148.944,278.279C143.016,278.891 150.135,300.126 135.124,298.852C126.444,298.116 132.976,269.762 125.8,268.714C121.954,268.153 126.015,283.191 123.119,286.478C118.819,291.359 110.667,290.404 109,286C103.48,271.42 112.383,230.168 72,241C65.149,242.838 52.955,238.757 57,221C62.369,197.432 44.523,180.724 41,160C28.167,84.5 71.525,19.205 160,14ZM143,161C126.667,151.5 86.291,151.912 77,158C72.167,161.167 77.167,185 84,192C90.833,199 107.655,202.525 118,200C139.167,194.833 144.833,180.5 146,173C146.623,168.993 146.505,163.039 143,161ZM160,197C153.345,205.31 142.667,226.5 146,237C147.181,240.719 153.5,240.667 156,239C158.5,237.333 160,228 160,228C160,228 161.5,237.333 164,239C166.5,240.667 172.819,240.719 174,237C177.333,226.5 166.655,205.31 160,197ZM177,161C173.495,163.039 173.377,168.993 174,173C175.167,180.5 180.833,194.833 202,200C212.345,202.525 229.167,199 236,192C242.833,185 247.833,161.167 243,158C233.709,151.912 193.333,151.5 177,161Z"/>
        </g>
    </g>
</svg>
