<?xml version="1.0" encoding="UTF-8" standalone="no"?>
<!DOCTYPE svg PUBLIC "-//W3C//DTD SVG 1.1//EN" "http://www.w3.org/Graphics/SVG/1.1/DTD/svg11.dtd">
<svg width="320" height="320" viewBox="0 0 320 320" version="1.1" xmlns="http://www.w3.org/2000/svg" xmlns:xlink="http://www.w3.org/1999/xlink" xml:space="preserve" xmlns:serif="http://www.serif.com/" style="fill-rule:evenodd;clip-rule:evenodd;stroke-linejoin:round;stroke-miterlimit:2;">
    <g id="gray">
        <g transform="matrix(0.533333,0,0,0.533333,0,0)">
            <circle cx="300" cy="300" r="300" style="fill:rgb(191,191,191);"/>
        </g>
        <g transform="matrix(1.38364,0,0,-1.38364,-61.3824,382.121)">
            <path d="M66.162,154.44C88.769,149.092 113.153,158.859 125.359,180C137.566,201.143 133.83,227.146 117.893,244.05C130.562,250.416 144.866,254 160,254C175.134,254 189.438,250.416 202.107,244.05C186.17,227.146 182.434,201.143 194.641,180C206.847,158.859 231.231,149.092 253.838,154.44C252.057,123.976 235.741,97.39 211.732,81.522C205.057,103.77 184.409,120 160,120C135.591,120 114.943,103.77 108.268,81.522C84.259,97.39 67.943,123.976 66.162,154.44ZM91.105,133.779C93.934,126.361 97.929,119.517 102.863,113.469C116.495,129.857 137.038,140.298 160,140.298C182.962,140.298 203.505,129.857 217.137,113.468C222.071,119.517 226.066,126.361 228.895,133.779C207.875,137.384 188.549,149.956 177.062,169.851C165.577,189.745 164.351,212.766 171.738,232.772C167.915,233.384 163.994,233.702 160,233.702C156.006,233.702 152.085,233.384 148.262,232.772C155.649,212.766 154.423,189.745 142.938,169.851C131.451,149.956 112.125,137.384 91.105,133.779Z"/>
        </g>
    </g>
</svg>
