<?xml version="1.0" encoding="UTF-8" standalone="no"?>
<!DOCTYPE svg PUBLIC "-//W3C//DTD SVG 1.1//EN" "http://www.w3.org/Graphics/SVG/1.1/DTD/svg11.dtd">
<svg width="320" height="320" viewBox="0 0 320 320" version="1.1" xmlns="http://www.w3.org/2000/svg" xmlns:xlink="http://www.w3.org/1999/xlink" xml:space="preserve" xmlns:serif="http://www.serif.com/" style="fill-rule:evenodd;clip-rule:evenodd;stroke-linejoin:round;stroke-miterlimit:2;">
    <g id="green">
        <g transform="matrix(0.533333,0,0,0.533333,0,0)">
            <circle cx="300" cy="300" r="300" style="fill:rgb(112,194,116);"/>
        </g>
        <g transform="matrix(0.853237,0,0,0.853237,18.9135,21.4381)">
            <path d="M175.904,247.427C173.709,250.727 170.841,256.12 167.572,263.341L165.514,267.886L163.407,263.364C153.982,243.138 152.405,227.138 155.907,214.145C161.157,194.667 177.929,181.781 197.852,171.527C217.143,161.599 239.219,153.833 256.136,144.922C274.82,135.08 285.618,119.265 285.618,119.265L283.236,125.907C270.798,160.607 243.885,187.116 219.694,213.338C196.096,238.917 175.065,264.18 173.795,297.088L173.313,309.602L164.037,281.931L164.354,281.146C171.102,264.46 174.683,253.458 175.904,247.427ZM148.714,155.529C150.812,161.045 155.74,171.311 158.924,179.452C168.091,164.516 176.846,149.498 186.014,134.815C182.271,126.01 184.637,113.66 191.51,103.011C202.114,86.578 223.14,74.271 246.877,85.616L255.499,89.736L245.946,89.974C225.086,90.494 214.188,103.577 210.826,112.043C205.716,124.91 198.356,132.309 189.576,147.689L189.55,147.731C189.55,147.731 159.97,194.689 157.474,199.476L153.478,207.138L153.152,198.502C152.442,179.681 139.63,157.914 123.438,137.04C98.675,105.118 65.866,75.389 54.167,61.475L45.091,50.681L57.118,58.046C79.421,71.704 115.923,77.751 141.123,90.215C154.358,96.762 164.524,105.092 168.482,116.83C172.412,128.483 170.286,143.669 158.362,164.12L156.488,166.334C156.488,166.334 149.81,157.161 148.714,155.529Z"/>
        </g>
    </g>
</svg>
