<?xml version="1.0" encoding="UTF-8" standalone="no"?>
<!DOCTYPE svg PUBLIC "-//W3C//DTD SVG 1.1//EN" "http://www.w3.org/Graphics/SVG/1.1/DTD/svg11.dtd">
<svg width="320" height="320" viewBox="0 0 320 320" version="1.1" xmlns="http://www.w3.org/2000/svg" xmlns:xlink="http://www.w3.org/1999/xlink" xml:space="preserve" xmlns:serif="http://www.serif.com/" style="fill-rule:evenodd;clip-rule:evenodd;stroke-linejoin:round;stroke-miterlimit:2;">
    <g id="purple">
        <g transform="matrix(0.533333,0,0,0.533333,0,0)">
            <circle cx="300" cy="300" r="300" style="fill:rgb(167,126,211);"/>
        </g>
        <path d="M105.114,190.589C132.301,200.465 160.094,193.534 174,172C167.007,245.35 -19.779,276.131 45.377,126C52.839,145.724 63.406,161.02 75.409,172.141C72.072,175.41 70,179.965 70,185C70,194.934 78.066,203 88,203C95.984,203 102.761,197.791 105.114,190.589ZM214.886,129.411C187.699,119.535 159.906,126.466 146,148C152.993,74.65 339.779,43.869 274.623,194C267.161,174.276 256.594,158.98 244.591,147.859C247.928,144.59 250,140.035 250,135C250,125.066 241.934,117 232,117C224.016,117 217.239,122.209 214.886,129.411ZM129.411,105.114C119.535,132.301 126.466,160.094 148,174C74.65,167.007 43.869,-19.779 194,45.377C174.276,52.839 158.98,63.406 147.859,75.409C144.59,72.072 140.035,70 135,70C125.066,70 117,78.066 117,88C117,95.984 122.209,102.761 129.411,105.114ZM190.589,214.886C200.465,187.699 193.534,159.906 172,146C245.35,152.993 276.131,339.779 126,274.623C145.724,267.161 161.02,256.594 172.141,244.591C175.41,247.928 179.965,250 185,250C194.934,250 203,241.934 203,232C203,224.016 197.791,217.239 190.589,214.886Z"/>
    </g>
</svg>
