<?xml version="1.0" encoding="UTF-8" standalone="no"?>
<!DOCTYPE svg PUBLIC "-//W3C//DTD SVG 1.1//EN" "http://www.w3.org/Graphics/SVG/1.1/DTD/svg11.dtd">
<svg width="320" height="320" viewBox="0 0 320 320" version="1.1" xmlns="http://www.w3.org/2000/svg" xmlns:xlink="http://www.w3.org/1999/xlink" xml:space="preserve" xmlns:serif="http://www.serif.com/" style="fill-rule:evenodd;clip-rule:evenodd;stroke-linejoin:round;stroke-miterlimit:2;">
    <g id="red">
        <g transform="matrix(0.533333,0,0,0.533333,0,0)">
            <circle cx="300" cy="300" r="300" style="fill:rgb(211,101,95);"/>
        </g>
        <g transform="matrix(0.908481,0,0,0.908481,12.3479,13.5211)">
            <path d="M256.496,128.589C256.791,178.76 249.886,183.681 245.465,196.169C240.596,209.922 246.803,247.119 280.457,210.036C274.433,263.574 212.963,307.051 162,305.337C111.346,303.633 49.096,267.607 44.596,158.997C50.098,169.927 67.753,193.238 79.004,196.064C70.055,160.36 93.31,164.552 69.477,98.813C91.551,99.754 110.684,124.35 114.831,135.669C106.638,99.414 151.81,78.742 108.056,17.632C187.717,9.876 202.941,86.491 213.281,113.495C221.067,133.827 235.174,154.564 256.496,128.589ZM139.879,271.678C153.428,283.984 183.405,287.006 200.999,264.346C235.763,219.572 181.56,202.171 214.396,178.703C204.231,181.326 187.217,183.03 187.523,198.425C164.352,168.739 187.633,154.56 151,111.219C162.947,156.389 152.561,166.991 143.516,192.286C133.769,219.548 129.015,197.273 108.753,203.495C130.619,233.428 110.04,244.577 139.879,271.678Z"/>
        </g>
    </g>
</svg>
