<?xml version="1.0" encoding="UTF-8" standalone="no"?>
<!DOCTYPE svg PUBLIC "-//W3C//DTD SVG 1.1//EN" "http://www.w3.org/Graphics/SVG/1.1/DTD/svg11.dtd">
<svg width="320" height="320" viewBox="0 0 320 320" version="1.1" xmlns="http://www.w3.org/2000/svg" xmlns:xlink="http://www.w3.org/1999/xlink" xml:space="preserve" xmlns:serif="http://www.serif.com/" style="fill-rule:evenodd;clip-rule:evenodd;stroke-linejoin:round;stroke-miterlimit:2;">
    <g id="white">
        <g transform="matrix(0.533333,0,0,0.533333,0,0)">
            <circle cx="300" cy="300" r="300" style="fill:rgb(245,235,189);"/>
        </g>
        <path d="M96.111,197.767C63.945,185.041 62.487,154.199 25.195,174.906C46.934,141.442 68.432,141.797 88.176,141.391C74.43,109.647 95.207,86.807 54.196,75.081C93.23,66.79 108.18,82.242 122.429,95.916C135.155,63.749 165.997,62.291 145.289,25C178.754,46.739 178.399,68.237 178.805,87.98C210.549,74.234 233.388,95.011 245.115,54C253.406,93.035 237.954,107.985 224.28,122.233C256.446,134.959 257.904,165.801 295.195,145.094C273.457,178.558 251.959,178.203 232.215,178.609C245.961,210.353 225.184,233.193 266.195,244.919C227.161,253.21 212.21,237.758 197.962,224.084C185.236,256.251 154.394,257.709 175.101,295C141.637,273.261 141.992,251.763 141.586,232.02C109.842,245.766 87.003,224.989 75.276,266C66.985,226.965 82.437,212.015 96.111,197.767ZM160,113C134.06,113 113,134.06 113,160C113,185.94 134.06,207 160,207C185.94,207 207,185.94 207,160C207,134.06 185.94,113 160,113Z"/>
    </g>
</svg>
